<svg xmlns="http://www.w3.org/2000/svg" x="0px" y="0px"
width="38" height="38"
viewBox="0 0 172 172"
style=" fill:#000000;"><g fill="none" fill-rule="nonzero" stroke="none" stroke-width="1" stroke-linecap="butt" stroke-linejoin="miter" stroke-miterlimit="10" stroke-dasharray="" stroke-dashoffset="0" font-family="none" font-weight="none" font-size="none" text-anchor="none" style="mix-blend-mode: normal"><path d="M0,172v-172h172v172z" fill="none"></path><g fill="#e74c3c"><path d="M147.52096,156.63008l-29.20904,-55.15696c16.24024,-7.54736 26.16808,-23.51584 26.16808,-42.55968c0,-29.51864 -21.93,-48.59344 -55.87248,-48.59344h-61.08752c-1.89888,0 -3.44,1.54112 -3.44,3.44v144.48c0,1.89888 1.54112,3.44 3.44,3.44h24.08c1.89888,0 3.44,-1.54112 3.44,-3.44v-51.6h30.97032l28.17704,53.20992c0.59856,1.12488 1.76816,1.83008 3.04096,1.83008h27.25168c1.20744,0 2.32544,-0.63296 2.94464,-1.66496c0.62608,-1.03544 0.66048,-2.31856 0.09632,-3.38496zM86.086,82.56h-31.046v-48.16h30.4096c17.43736,0 28.0704,9.17448 28.0704,24.1316c0,15.25296 -9.9932,24.0284 -27.434,24.0284z"></path></g></g></svg>